<svg width="32" height="35" viewBox="0 0 32 35" fill="none" xmlns="http://www.w3.org/2000/svg">
<path d="M0.738276 13.0446V0H6.33072C6.95825 0 7.53042 0.128609 8.04721 0.385827C8.57631 0.643045 9.02543 0.979878 9.39456 1.39633C9.77601 1.81277 10.0713 2.28434 10.2805 2.81102C10.502 3.33771 10.6127 3.87052 10.6127 4.40945C10.6127 4.98513 10.5081 5.53631 10.299 6.06299C10.1021 6.58968 9.81907 7.06124 9.44993 7.47769C9.0931 7.89414 8.65629 8.22485 8.13949 8.46982C7.6227 8.71479 7.05054 8.83727 6.423 8.83727H3.76521V13.0446H0.738276ZM3.76521 6.20997H6.23843C6.59527 6.20997 6.90288 6.05687 7.16128 5.75066C7.41967 5.44445 7.54887 4.99738 7.54887 4.40945C7.54887 4.10324 7.50581 3.8399 7.41967 3.61942C7.34585 3.39895 7.24126 3.21522 7.10591 3.06824C6.97056 2.92126 6.81675 2.81715 6.64449 2.75591C6.47222 2.68242 6.29996 2.64567 6.12769 2.64567H3.76521V6.20997Z" fill="white"/>
<path d="M25.2499 10.4724C25.7667 10.4724 26.2035 10.3683 26.5603 10.1601C26.9172 9.93963 27.2063 9.65179 27.4278 9.29659C27.6493 8.94138 27.8031 8.53718 27.8892 8.08399C27.9877 7.61855 28.0369 7.14698 28.0369 6.66929V0H31.0638V6.66929C31.0638 7.57568 30.9469 8.42082 30.7132 9.20473C30.4917 9.98863 30.141 10.6745 29.6611 11.2625C29.1935 11.8504 28.5906 12.3158 27.8523 12.6588C27.1264 12.9895 26.2589 13.1549 25.2499 13.1549C24.204 13.1549 23.3119 12.9773 22.5737 12.622C21.8354 12.2668 21.2325 11.7953 20.7649 11.2073C20.3096 10.6072 19.9712 9.91514 19.7498 9.13123C19.5406 8.34733 19.436 7.52668 19.436 6.66929V0H22.4629V6.66929C22.4629 7.17148 22.5121 7.64917 22.6106 8.10236C22.709 8.55556 22.869 8.95976 23.0904 9.31496C23.3119 9.67017 23.5949 9.95188 23.9395 10.1601C24.2963 10.3683 24.7331 10.4724 25.2499 10.4724Z" fill="white"/>
<path d="M0 32.7402L6.82905 24.601H0.258397V21.9554H10.3174V24.2152L3.82058 32.3543H10.3912V35H0V32.7402Z" fill="white"/>
<path d="M23.2188 21.9554H25.9504L30.7307 35H27.63L26.6149 32.0787H22.5359L21.5392 35H18.4384L23.2188 21.9554ZM26.1165 30.0026L24.5846 25.3911L23.0158 30.0026H26.1165Z" fill="white"/>
</svg>
